#!OML:ASF E:\Style4\Style4.ASF
:FULLY-SPECIFIED
:DEGREES
424
root -0.110914 16.4041 -2.42323 9.95879 -0.995337 3.18369
lowerback 14.2938 1.45631 -3.27084
upperback 3.66017 1.40871 -0.707082
thorax -4.20036 0.715153 0.857028
lowerneck 6.25782 -3.27036 -7.04118
upperneck -2.28246 -4.73079 4.92878
head -1.52374 -2.40949 2.97499
rclavicle 3.97569e-016 -2.18663e-015
rhumerus -20.1444 34.4345 -87.397
rradius 75.4253
rwrist 7.26373
rhand -34.2419 27.9192
rfingers 7.12502
rthumb -7.41306 -1.93093
lclavicle 3.97569e-016 -2.18663e-015
lhumerus -18.8838 -39.5988 86.8647
lradius 77.5231
lwrist -19.3953
lhand -25.7112 25.3154
lfingers 7.12502
lthumb 0.824654 55.2935
rfemur -42.4408 0.361912 15.0114
rtibia 62.6665
rfoot -27.3494 -15.9189
rtoes -12.8582
lfemur -40.7213 -0.856413 -22.2253
ltibia 60.4521
lfoot -27.923 7.58648
ltoes -15.6674
425
root -0.110912 16.4102 -2.42192 9.97749 -0.998165 3.18704
lowerback 14.2579 1.47877 -3.29432
upperback 3.66567 1.43629 -0.712376
thorax -4.17652 0.728557 0.860621
lowerneck 5.98725 -3.26275 -6.96918
upperneck -1.97709 -4.70263 4.9269
head -1.37893 -2.39646 2.94436
rclavicle -1.78906e-015 -1.59028e-015
rhumerus -20.1958 34.3827 -87.4441
rradius 75.4531
rwrist 7.1707
rhand -34.1426 27.9519
rfingers 7.12502
rthumb -7.31726 -1.90161
lclavicle -1.78906e-015 -1.59028e-015
lhumerus -18.7863 -39.655 86.9224
lradius 77.4356
lwrist -19.4334
lhand -25.7509 25.0937
lfingers 7.12502
lthumb 0.786343 55.072
rfemur -42.4153 0.367274 15.0071
rtibia 62.5863
rfoot -27.248 -15.9855
rtoes -13.0573
lfemur -40.7007 -0.84995 -22.2303
ltibia 60.3739
lfoot -27.9083 7.62039
ltoes -15.6495
426
root -0.109295 16.4149 -2.42075 10.0085 -0.979657 3.20876
lowerback 14.2184 1.48331 -3.28724
upperback 3.65207 1.44342 -0.739072
thorax -4.16891 0.732083 0.828003
lowerneck 5.86537 -3.25233 -6.92065
upperneck -1.78536 -4.6792 4.97119
head -1.29652 -2.3867 2.94161
rclavicle 2.68359e-015 -1.72943e-014
rhumerus -20.2841 34.3674 -87.5016
rradius 75.5253
rwrist 7.1022
rhand -34.1263 27.8972
rfingers 7.12502
rthumb -7.30143 -1.9568
lclavicle 2.68359e-015 -1.72943e-014
lhumerus -18.6933 -39.7792 86.9262
lradius 77.3409
lwrist -19.4174
lhand -25.8597 25.0051
lfingers 7.12502
lthumb 0.681296 54.9837
rfemur -42.4015 0.33142 14.973
rtibia 62.5166
rfoot -27.2249 -15.9294
rtoes -12.9031
lfemur -40.6836 -0.889683 -22.2512
ltibia 60.2823
lfoot -27.894 7.55145
ltoes -15.1007
427
root -0.107806 16.4187 -2.41807 10.0599 -1.00805 3.31166
lowerback 14.1453 1.48958 -3.39736
upperback 3.62893 1.43709 -0.770791
thorax -4.15493 0.729804 0.859119
lowerneck 5.965 -3.26164 -6.92998
upperneck -1.85358 -4.69677 4.99178
head -1.33473 -2.39619 2.95534
rclavicle -1.59028e-015 3.77691e-015
rhumerus -20.3439 34.4121 -87.5358
rradius 75.5853
rwrist 7.03775
rhand -34.0596 27.9027
rfingers 7.12502
rthumb -7.23709 -1.95356
lclavicle -1.59028e-015 3.77691e-015
lhumerus -18.7247 -39.8716 86.9289
lradius 77.3685
lwrist -19.3475
lhand -26.0047 24.9191
lfingers 7.12502
lthumb 0.541201 54.8982
rfemur -42.4282 0.310423 14.8485
rtibia 62.4652
rfoot -27.2134 -15.8813
rtoes -12.9077
lfemur -40.6637 -0.900924 -22.3705
ltibia 60.173
lfoot -27.9004 7.47455
ltoes -14.6942
428
root -0.10629 16.425 -2.41432 10.0667 -1.00277 3.3454
lowerback 14.0898 1.49009 -3.42659
upperback 3.63219 1.43564 -0.78308
thorax -4.12168 0.728886 0.864187
lowerneck 6.26129 -3.30462 -6.87903
upperneck -2.18906 -4.7652 4.93045
head -1.49466 -2.42918 2.94388
rclavicle 7.65321e-015 -3.18055e-015
rhumerus -20.3626 34.4575 -87.5587
rradius 75.5706
rwrist 6.98082
rhand -34.0245 28.0687
rfingers 7.12502
rthumb -7.20323 -1.78875
lclavicle 7.65321e-015 -3.18055e-015
lhumerus -18.7616 -39.9813 86.9216
lradius 77.4171
lwrist -19.2837
lhand -26.1713 24.9
lfingers 7.12502
lthumb 0.380276 54.8794
rfemur -42.3541 0.283915 14.806
rtibia 62.3847
rfoot -27.266 -15.845
rtoes -12.9637
lfemur -40.5827 -0.90074 -22.4224
ltibia 60.0544
lfoot -27.8906 7.58821
ltoes -15.188
429
root -0.105737 16.4324 -2.41283 10.0517 -1.02821 3.40084
lowerback 14.1048 1.51635 -3.49393
upperback 3.62777 1.45931 -0.792659
thorax -4.13667 0.741186 0.887504
lowerneck 6.43412 -3.34301 -6.88763
upperneck -2.38986 -4.82485 4.92683
head -1.58733 -2.45851 2.95615
rclavicle 7.85199e-015 -2.5842e-015
rhumerus -20.4069 34.4929 -87.5472
rradius 75.5587
rwrist 6.93196
rhand -34.1225 28.2287
rfingers 7.12502
rthumb -7.29786 -1.6254
lclavicle 7.85199e-015 -2.5842e-015
lhumerus -18.7864 -40.0861 86.9497
lradius 77.4963
lwrist -19.225
lhand -26.1497 25.0426
lfingers 7.12502
lthumb 0.401112 55.022
rfemur -42.276 0.30712 14.7253
rtibia 62.2948
rfoot -27.2715 -15.7966
rtoes -12.849
lfemur -40.4851 -0.87537 -22.4961
ltibia 59.9284
lfoot -27.8674 7.6803
ltoes -15.592
